<?xml version="1.0" encoding="UTF-8" standalone="no"?>
<!-- Created with Inkscape (http://www.inkscape.org/) -->

<svg
   version="1.1"
   id="svg2"
   width="768"
   height="288"
   viewBox="0 0 768 288"
   sodipodi:docname="FTW Vector B&amp;W.ai"
   xmlns:inkscape="http://www.inkscape.org/namespaces/inkscape"
   xmlns:sodipodi="http://sodipodi.sourceforge.net/DTD/sodipodi-0.dtd"
   xmlns="http://www.w3.org/2000/svg"
   xmlns:svg="http://www.w3.org/2000/svg">
  <defs
     id="defs6">
    <clipPath
       clipPathUnits="userSpaceOnUse"
       id="clipPath16">
      <path
         d="M 0,216 H 576 V 0 H 0 Z"
         id="path14" />
    </clipPath>
    <clipPath
       clipPathUnits="userSpaceOnUse"
       id="clipPath48">
      <path
         d="m 262.74,154.321 h 57.43 V 99.99 h -57.43 z"
         id="path46" />
    </clipPath>
  </defs>
  <sodipodi:namedview
     id="namedview4"
     pagecolor="#ffffff"
     bordercolor="#000000"
     borderopacity="0.25"
     inkscape:showpageshadow="2"
     inkscape:pageopacity="0.0"
     inkscape:pagecheckerboard="0"
     inkscape:deskcolor="#d1d1d1" />
  <g
     id="g8"
     inkscape:groupmode="layer"
     inkscape:label="FTW Vector B&amp;W"
     transform="matrix(1.3333333,0,0,-1.3333333,0,288)">
    <g
       id="g10">
      <g
         id="g12"
         clip-path="url(#clipPath16)">
        <g
           id="g18"
           transform="translate(441.8,178.59)">
          <path
             d="m 0,0 c -0.87,-1.14 -1.62,-2.15 -2.4,-3.14 l -10.11,-12.93 c -5.13,-6.58 -10.26,-13.17 -15.38,-19.76 -5.92,-7.64 -11.82,-15.3 -17.74,-22.93 -4.95,-6.37 -9.94,-12.7 -14.89,-19.07 -5.69,-7.31 -11.34,-14.65 -17.03,-21.96 -3.01,-3.87 -6.08,-7.71 -9.11,-11.57 -1.94,-2.48 -3.75,-5.07 -5.8,-7.46 -5.78,-6.73 -14.98,-9.74 -23.83,-6.56 -4.5,1.62 -7.98,4.58 -10.86,8.34 -4.81,6.27 -9.68,12.51 -14.52,18.76 -0.88,1.14 -0.99,1.17 -1.92,-0.02 -3.34,-4.28 -6.64,-8.59 -10,-12.86 -2.42,-3.07 -4.74,-6.25 -7.43,-9.07 -3.7,-3.9 -8.38,-5.97 -13.82,-6.28 -8.11,-0.46 -14.35,2.93 -19.24,9.17 -2.83,3.62 -5.65,7.24 -8.46,10.87 -4.86,6.28 -9.73,12.55 -14.56,18.86 -0.68,0.89 -1.41,1.21 -2.53,1.21 -24.52,-0.03 -49.03,-0.03 -73.55,-0.02 -6.39,0 -12.79,0.1 -19.18,0.11 -5.6,0.01 -11.19,-0.06 -16.79,-0.09 h -1.51 c 1.5,1.97 2.84,3.74 4.19,5.49 2.03,2.62 4.09,5.22 6.12,7.84 0.52,0.67 1.08,1.04 2,1.03 33.44,-0.03 66.87,-0.04 100.31,-0.05 1.6,0 3.2,-0.1 4.8,-0.01 1.02,0.06 1.63,-0.37 2.2,-1.11 3.24,-4.21 6.5,-8.41 9.77,-12.6 6.01,-7.72 12.02,-15.45 18.07,-23.14 1.73,-2.2 4.1,-3.4 6.85,-3.4 3.02,0 5.54,1.31 7.43,3.74 4.81,6.18 9.64,12.34 14.45,18.52 3.65,4.7 7.29,9.41 10.94,14.11 0.82,1.06 1.03,1.02 1.84,-0.03 4.99,-6.44 9.99,-12.87 14.99,-19.31 3.38,-4.35 6.8,-8.68 10.12,-13.07 3.7,-4.89 10.16,-5.34 14.28,-0.74 2.53,2.82 4.77,5.9 7.1,8.89 6.09,7.82 12.16,15.65 18.24,23.47 5.36,6.91 10.72,13.82 16.08,20.72 5.97,7.69 11.94,15.39 17.92,23.08 6.7,8.6 13.4,17.2 20.1,25.8 1.69,2.17 3.36,4.36 5.09,6.5 0.31,0.39 0.89,0.77 1.36,0.78 5.24,0.07 10.48,0.06 15.71,0.07 C -0.53,0.17 -0.38,0.1 0,0"
             style="fill:#000000;fill-opacity:1;fill-rule:nonzero;stroke:none"
             id="path20" />
        </g>
        <g
           id="g22"
           transform="translate(130.27,116.66)">
          <path
             d="m 0,0 c 0.34,0.68 0.49,1.12 0.76,1.47 3.05,3.95 6.14,7.87 9.19,11.82 0.54,0.7 1.11,1.06 2.09,1.06 31.88,-0.03 63.76,-0.03 95.64,-0.01 0.87,0 1.46,-0.23 2.06,-0.88 2.8,-3.03 5.8,-5.89 8.45,-9.04 2.74,-3.26 5.14,-6.8 7.74,-10.18 2.97,-3.85 6,-7.66 9.02,-11.49 0.11,-0.14 0.31,-0.23 0.52,-0.37 1.58,2 3.16,3.95 4.68,5.94 3.13,4.06 6.15,8.21 9.37,12.2 1.9,2.35 3.87,4.73 6.2,6.61 1.92,1.55 4.33,2.64 6.68,3.48 4.4,1.57 8.98,1.43 13.35,-0.04 4.41,-1.48 8.06,-4.19 10.87,-8.01 2.29,-3.11 4.79,-6.07 7.17,-9.11 2.01,-2.58 4.08,-5.12 5.93,-7.81 0.62,-0.91 1.22,-1.77 1.99,-2.57 0.77,-0.8 1.16,-0.47 1.67,0.21 1.51,2 3.06,3.99 4.59,5.97 2.8,3.63 5.61,7.25 8.42,10.88 3.85,4.98 7.69,9.97 11.56,14.94 3.33,4.28 6.71,8.52 10.05,12.79 3.04,3.89 6.03,7.8 9.07,11.69 2.05,2.62 4.18,5.19 6.22,7.82 3.64,4.67 7.23,9.36 10.87,14.03 0.26,0.33 0.76,0.69 1.15,0.69 5.47,0.04 10.94,0.03 16.64,0.03 -0.24,-0.48 -0.35,-0.85 -0.56,-1.13 -3.1,-4 -6.23,-7.98 -9.34,-11.98 -2.72,-3.52 -5.41,-7.06 -8.14,-10.58 -3.2,-4.12 -6.44,-8.21 -9.64,-12.32 -3.84,-4.94 -7.65,-9.91 -11.5,-14.85 -3.36,-4.31 -6.76,-8.58 -10.11,-12.88 -3.01,-3.86 -5.99,-7.74 -8.99,-11.61 -4.01,-5.16 -8.04,-10.32 -12.05,-15.48 -2.67,-3.43 -5.33,-6.87 -7.99,-10.31 -1,-1.3 -1.16,-1.35 -2.18,-0.05 -2.95,3.77 -5.85,7.57 -8.79,11.35 -2.93,3.78 -5.88,7.55 -8.82,11.33 -2.54,3.27 -5.03,6.58 -7.64,9.8 -1.82,2.25 -4.2,3.75 -7.16,3.75 -3.18,0 -5.68,-1.6 -7.63,-4.04 -1.76,-2.21 -3.44,-4.5 -5.17,-6.73 -3.84,-4.94 -7.71,-9.87 -11.56,-14.81 -2.67,-3.43 -5.32,-6.88 -7.99,-10.3 -1.03,-1.31 -1.54,-1.33 -2.58,-0.02 -3.13,3.94 -6.21,7.91 -9.32,11.86 -3.18,4.03 -6.39,8.04 -9.56,12.09 -2.74,3.5 -5.43,7.03 -8.15,10.55 -0.89,1.15 -1.73,2.38 -2.77,3.38 -0.54,0.52 -1.45,0.84 -2.22,0.91 -1.26,0.12 -2.55,-0.06 -3.83,-0.06 C 69.7,-0.02 41.14,-0.02 12.58,-0.01 8.86,-0.01 5.14,0 1.42,0 Z"
             style="fill:#000000;fill-opacity:1;fill-rule:nonzero;stroke:none"
             id="path24" />
        </g>
        <g
           id="g26"
           transform="translate(145.07,131.94)">
          <path
             d="m 0,0 c 1.24,1.52 2.45,3.09 3.75,4.58 4.06,4.67 8.01,9.45 12.26,13.94 4.76,5.03 10.13,9.39 16.06,13 3.6,2.19 7.2,4.44 11.01,6.21 4.05,1.88 8.33,3.3 12.56,4.79 5.2,1.83 10.6,2.95 16.07,3.54 4.28,0.46 8.6,0.66 12.91,0.77 5.15,0.13 10.31,0.06 15.47,0.06 3.88,0 7.75,-0.04 11.63,-0.04 9.32,0.01 18.63,0.04 27.95,0.06 3.28,0.01 6.55,0 9.83,-0.01 0.15,0 0.29,-0.05 0.64,-0.11 -1.21,-1.44 -2.32,-2.78 -3.45,-4.1 -2.75,-3.22 -5.49,-6.46 -8.3,-9.62 -0.37,-0.41 -1.18,-0.59 -1.79,-0.59 -8.52,-0.03 -17.04,0 -25.56,-0.01 -9.4,-0.01 -18.8,-0.02 -28.2,-0.05 C 76.06,32.4 69.43,31.4 62.86,29.66 55.14,27.61 47.95,24.44 41.14,20.3 34.26,16.12 28.3,10.86 22.9,4.94 21.51,3.41 20.25,1.76 18.9,0.2 18.72,-0.01 18.38,-0.18 18.12,-0.18 12.12,-0.19 6.12,-0.17 0.13,-0.15 0.11,-0.17 0.09,-0.11 0,0"
             style="fill:#000000;fill-opacity:1;fill-rule:nonzero;stroke:none"
             id="path28" />
        </g>
        <g
           id="g30"
           transform="translate(129.8,91.41)">
          <path
             d="m 0,0 c -3.24,-3.85 -6.27,-7.48 -9.33,-11.09 -3.56,-4.21 -7.14,-8.4 -10.69,-12.61 -0.23,-0.28 -0.28,-0.71 -0.41,-1.07 0.36,-0.12 0.72,-0.33 1.07,-0.33 3.4,-0.02 6.8,-0.04 10.19,0.03 0.6,0.01 1.36,0.33 1.75,0.77 3,3.48 5.9,7.03 8.86,10.53 3.82,4.5 7.66,8.98 11.52,13.44 0.23,0.26 0.67,0.48 1.01,0.48 5.68,0.03 11.36,0.02 17.03,0.01 0.1,0 0.21,-0.07 0.47,-0.16 -0.34,-0.43 -0.62,-0.79 -0.92,-1.14 -2.07,-2.49 -4.31,-4.86 -6.16,-7.5 -4.41,-6.27 -9.75,-11.76 -14.5,-17.75 -3.3,-4.16 -6.84,-8.13 -10.25,-12.19 -0.61,-0.72 -1.27,-1.04 -2.26,-1.04 -16.11,0.02 -32.23,0 -48.34,0 -0.23,0 -0.46,0.05 -0.9,0.1 0.24,0.47 0.36,0.88 0.61,1.18 4.33,5.17 8.69,10.32 13.03,15.48 4.85,5.77 9.68,11.56 14.53,17.34 1.41,1.68 2.84,3.36 4.29,5 0.23,0.26 0.65,0.5 0.99,0.5 C -12.36,0.01 -6.33,0 0,0"
             style="fill:#000000;fill-opacity:1;fill-rule:nonzero;stroke:none"
             id="path32" />
        </g>
        <g
           id="g34"
           transform="translate(274.38,154.33)">
          <path
             d="m 0,0 c -3.47,-4.06 -6.71,-7.86 -9.96,-11.65 -0.31,-0.36 -0.69,-0.69 -0.92,-1.1 -0.92,-1.62 -2.4,-1.82 -4.07,-1.8 -7.75,0.06 -15.51,0.09 -23.26,0.08 -3.5,0 -7,-0.11 -10.5,-0.2 -4.39,-0.12 -8.65,-1.06 -12.86,-2.25 -4.31,-1.21 -8.29,-3.14 -12.2,-5.27 -0.37,-0.2 -0.81,-0.39 -1.21,-0.39 -7.32,-0.02 -14.63,-0.02 -21.95,-0.01 -0.15,0 -0.29,0.05 -0.69,0.11 1.54,1.62 2.89,3.17 4.38,4.56 1.08,1.01 2.33,1.85 3.56,2.68 2.68,1.82 5.35,3.67 8.12,5.36 5.33,3.25 11.06,5.6 17.06,7.27 6.6,1.83 13.35,2.64 20.2,2.62 C -30.07,-0.03 -15.84,0 -1.6,0 Z"
             style="fill:#000000;fill-opacity:1;fill-rule:nonzero;stroke:none"
             id="path36" />
        </g>
        <g
           id="g38"
           transform="translate(384.31,178.78)">
          <path
             d="m 0,0 c -1.13,-1.39 -2.02,-2.52 -2.95,-3.62 -2.43,-2.89 -4.98,-5.69 -7.28,-8.68 -1.22,-1.58 -2.53,-2.15 -4.51,-2.13 -9.71,0.1 -19.43,0.05 -29.14,0.05 h -46.17 c 0.12,0.27 0.16,0.5 0.29,0.65 3.66,4.33 7.36,8.63 10.99,12.99 0.66,0.79 1.37,0.75 2.22,0.75 6.31,0 12.63,0.05 18.94,0.04 14.5,-0.01 29,-0.04 43.5,-0.06 4.2,-0.01 8.39,0 12.59,0 C -1.16,0 -0.78,0 0,0"
             style="fill:#000000;fill-opacity:1;fill-rule:nonzero;stroke:none"
             id="path40" />
        </g>
        <g
           id="g42">
          <g
             id="g44" />
          <g
             id="g56">
            <g
               clip-path="url(#clipPath48)"
               opacity="0.25"
               id="g54">
              <g
                 transform="translate(265.55,99.99)"
                 id="g52">
                <path
                   d="M 0,0 C -0.95,1.28 -1.84,2.49 -2.81,3.79 7.11,15.7 17.07,27.67 27.2,39.83 H 7.62 c 1.48,1.77 2.76,3.31 4.06,4.85 2.51,2.96 5,5.92 7.55,8.84 0.34,0.39 0.96,0.77 1.46,0.78 11.08,0.04 22.15,0.03 33.23,0.03 0.16,0 0.32,-0.03 0.7,-0.07 -0.26,-0.4 -0.44,-0.72 -0.67,-1 C 47.84,45.81 43.73,38.36 37.58,30.94 37.29,30.59 36.66,30.36 36.19,30.35 H 35.34 C 30.99,31.16 20.51,27.16 18.66,24.12 12.68,16.37 6.7,8.61 0.71,0.86 0.49,0.56 0.23,0.27 0,0"
                   style="fill:#000000;fill-opacity:1;fill-rule:nonzero;stroke:none"
                   id="path50" />
              </g>
            </g>
          </g>
        </g>
        <g
           id="g58"
           transform="translate(319.2,118.26)">
          <path
             d="m 0,0 c -2.14,4.03 -5.22,6.88 -9.23,8.89 0.18,0.26 0.31,0.49 0.48,0.69 6.9,8.56 13.82,17.1 20.71,25.67 0.48,0.59 0.97,0.81 1.72,0.8 9.84,-0.02 19.68,0 29.51,0 0.31,0 0.61,-0.06 1.07,-0.1 C 44.1,35.6 44.04,35.33 43.89,35.15 40.25,30.86 36.62,26.56 32.94,22.3 32.61,21.92 31.94,21.63 31.42,21.63 27.26,21.58 23.1,21.57 18.95,21.61 18.07,21.62 17.5,21.34 16.94,20.65 11.55,14.01 6.12,7.39 0.7,0.77 0.5,0.54 0.28,0.31 0,0"
             style="fill:#000000;fill-opacity:1;fill-rule:nonzero;stroke:none"
             id="path60" />
        </g>
        <g
           id="g62"
           transform="translate(427.48,128.87)">
          <path
             d="M 0,0 C 0.81,1.06 1.5,1.97 2.19,2.88 3.6,4.76 3.6,4.76 2.3,6.68 2.01,7.11 1.61,7.5 1.44,7.97 1.28,8.42 1.2,9.03 1.37,9.45 1.76,10.42 2.32,11.33 2.93,12.49 2.56,12.29 2.42,12.27 2.36,12.18 0.6,9.85 -1.16,7.53 -2.88,5.17 -3.02,4.97 -3.04,4.51 -2.91,4.31 -2.02,2.93 -1.07,1.57 0,0 m 4.7,-12.59 c 0.3,0.05 0.41,0.03 0.44,0.07 1.71,2.26 3.45,4.49 5.09,6.8 0.22,0.32 0.11,1.08 -0.12,1.47 -0.59,0.99 -1.42,1.83 -1.99,2.82 -0.52,0.91 -0.9,0.86 -1.45,0.1 C 5.92,-2.37 5.18,-3.41 4.38,-4.4 3.91,-4.98 3.98,-5.44 4.4,-6 4.91,-6.66 5.27,-7.44 5.83,-8.06 6.5,-8.8 6.39,-9.43 5.91,-10.2 5.44,-10.91 5.13,-11.71 4.7,-12.59 m 5.69,21.12 c 1.43,0.19 2.18,-0.76 2.93,-1.88 1.68,-2.48 3.44,-4.9 5.22,-7.31 1.67,-2.27 1.68,-4.71 -0.01,-6.95 -3.32,-4.41 -6.63,-8.82 -9.93,-13.25 -1.42,-1.9 -3.16,-1.9 -4.57,0.04 -1.93,2.65 -3.92,5.26 -5.73,7.98 -0.61,0.91 -0.86,2.1 -1.08,3.2 -0.13,0.61 -0.29,0.8 -0.88,1 -0.69,0.23 -1.44,0.68 -1.87,1.26 -2.04,2.71 -4.01,5.48 -5.93,8.27 -1.31,1.91 -1.17,4.18 0.21,6.01 3.44,4.57 6.86,9.16 10.29,13.73 1.3,1.73 2.79,1.86 4.11,0.13 2.21,-2.88 4.34,-5.83 6.34,-8.85 0.58,-0.88 0.59,-2.12 0.9,-3.38"
             style="fill:#000000;fill-opacity:1;fill-rule:nonzero;stroke:none"
             id="path64" />
        </g>
        <g
           id="g66"
           transform="translate(389.44,88.02)">
          <path
             d="m 0,0 c -0.99,-1.31 -1.8,-2.37 -2.6,-3.44 -2.64,-3.57 -5.28,-7.13 -7.9,-10.71 -0.45,-0.61 -0.83,-0.56 -1.21,-0.02 -1.31,1.86 -2.63,3.72 -3.88,5.62 -0.15,0.22 -0.03,0.79 0.16,1.05 4.1,5.52 8.23,11.02 12.37,16.51 1.08,1.43 2.98,1.37 4.05,-0.1 2.49,-3.42 4.94,-6.86 7.42,-10.28 1.52,-2.11 1.64,-5.14 -0.13,-7.2 -2.13,-2.48 -3.95,-5.23 -5.96,-7.82 -0.49,-0.63 -0.51,-1.12 0,-1.68 0.08,-0.09 0.16,-0.18 0.23,-0.28 1.22,-1.62 2.5,-3.23 0.32,-5.29 0.2,-0.05 0.4,-0.1 0.6,-0.15 3.54,4.71 7.08,9.42 10.74,14.29 1.51,-2.19 2.96,-4.26 4.33,-6.38 0.16,-0.25 -0.05,-0.92 -0.29,-1.24 -3.51,-4.66 -7.06,-9.29 -10.58,-13.95 -0.45,-0.6 -0.75,-1.32 -1.21,-1.92 -1.45,-1.92 -3.31,-1.92 -4.72,0.01 -1.84,2.51 -3.63,5.06 -5.44,7.59 -0.63,0.87 -1.31,1.71 -1.9,2.61 -1.44,2.17 -1.39,4.39 0.13,6.46 1.99,2.7 3.99,5.4 6.01,8.08 0.53,0.7 0.71,1.32 0.02,2 -0.06,0.05 -0.07,0.14 -0.13,0.2 -1.47,1.65 -2.23,3.35 -0.46,5.28 C 0.06,-0.68 0,-0.48 0,0"
             style="fill:#000000;fill-opacity:1;fill-rule:nonzero;stroke:none"
             id="path68" />
        </g>
        <g
           id="g70"
           transform="translate(419.73,100.2)">
          <path
             d="m 0,0 c -0.66,-0.61 -1.33,-1.23 -2.14,-1.97 -0.91,1.21 -1.77,2.37 -2.8,3.75 -3.11,-4.14 -6.11,-8.13 -9.21,-12.26 -1.22,1.74 -2.33,3.33 -3.45,4.91 -2.52,3.55 -5.05,7.09 -7.6,10.62 -0.56,0.78 -0.62,1.34 0.03,2.19 4.42,5.79 8.75,11.63 13.12,17.45 0.28,0.38 0.58,0.74 0.96,1.22 1.56,-2.14 3.05,-4.14 4.47,-6.2 0.13,-0.19 -0.06,-0.75 -0.27,-1.02 -3.23,-4.33 -6.48,-8.64 -9.72,-12.96 -0.37,-0.49 -0.69,-1.01 -0.82,-1.7 0.78,0.71 1.56,1.42 2.41,2.2 0.88,-1.26 1.73,-2.48 2.68,-3.85 0.39,0.44 0.66,0.71 0.89,1.01 2.14,2.85 4.26,5.7 6.39,8.55 1.01,1.34 3,1.36 4,-0.02 C 1.55,8.29 4.15,4.66 6.69,0.98 7.98,-0.88 7.8,-3.25 6.44,-5.06 c -3.77,-5.02 -7.53,-10.05 -11.3,-15.07 -0.4,-0.53 -0.8,-1.07 -1.38,-1.82 -0.26,0.88 -0.45,1.5 -0.64,2.13 -0.62,2.11 -1.29,4.21 -1.83,6.33 -0.12,0.48 0.01,1.19 0.3,1.59 2.63,3.58 5.32,7.11 7.98,10.66 0.25,0.33 0.46,0.69 0.69,1.04 C 0.19,-0.14 0.1,-0.07 0,0"
             style="fill:#000000;fill-opacity:1;fill-rule:nonzero;stroke:none"
             id="path72" />
        </g>
        <g
           id="g74"
           transform="translate(462.83,143.47)">
          <path
             d="m 0,0 c -1.62,2.27 -3.12,4.37 -4.78,6.71 -3.1,-4.12 -6.1,-8.11 -9.2,-12.23 -1.77,2.45 -3.44,4.72 -5.07,7.03 -3.14,4.42 -6.26,8.86 -9.36,13.31 -0.21,0.31 -0.34,0.97 -0.16,1.22 1.64,2.27 3.35,4.48 5.04,6.7 0.04,0.05 0.14,0.06 0.21,0.09 3.67,-5.15 7.34,-10.29 11.19,-15.7 1.98,2.64 3.87,5.15 5.75,7.65 l -0.31,0.31 c -0.74,-0.69 -1.49,-1.38 -2.39,-2.22 -0.82,1.13 -1.63,2.19 -2.39,3.28 -1.83,2.62 -1.82,2.63 0.09,5.18 1.19,1.59 2.39,3.18 3.68,4.89 1.5,-2.12 2.91,-4.12 4.32,-6.12 2.23,-3.16 4.47,-6.31 6.71,-9.46 C 3.7,10.12 4.06,9.6 4.4,9.06 5.47,7.38 5.49,7.36 4.35,5.79 2.98,3.9 1.55,2.05 0,0"
             style="fill:#000000;fill-opacity:1;fill-rule:nonzero;stroke:none"
             id="path76" />
        </g>
        <g
           id="g78"
           transform="translate(258.93,51.86)">
          <path
             d="m 0,0 h -39.13 c -0.09,0.09 -0.18,0.19 -0.27,0.28 5.6,7.03 11.55,13.78 17.35,20.78 0.27,-0.33 0.5,-0.58 0.71,-0.85 0.53,-0.7 1.02,-1.43 1.57,-2.12 2.66,-3.32 5.29,-6.68 8.03,-9.94 C -8.6,4.41 -4.7,1.74 0,0"
             style="fill:#000000;fill-opacity:1;fill-rule:nonzero;stroke:none"
             id="path80" />
        </g>
        <g
           id="g82"
           transform="translate(262.74,103.79)">
          <path
             d="M 0,0 30.01,36.04 H 10.43 l 11.62,13.69 c 0,0 0.54,0.56 0.82,0.67 0.38,0.15 1.66,0.11 1.66,0.11 l 32.91,-0.05 c 0,0 -16.69,-22.98 -17.85,-24.43 0,0 -2.44,0.07 -3.15,-0.02 -8.12,-1.07 -11.3,-2.97 -16.67,-7.97 L 2.63,-3.88 Z"
             style="fill:#000000;fill-opacity:1;fill-rule:nonzero;stroke:none"
             id="path84" />
        </g>
      </g>
    </g>
  </g>
</svg>
